# xmcd
#
# Track frame offsets:
#	150
#	25534
#	45895
#	92490
#	140687
#	172075
#
# Disc length: 3754 seconds
#
# Revision: 24
# Processed by: cddbd v1.5.2PL0 Copyright (c) Steve Scherf et al.
# Submitted via: EasyCDDAExtractor 16.0.6.1
#
DISCID=400ea806
DTITLE=Eric Clapton - R-627 Crossroads 2 CD 2
DYEAR=1996
DGENRE=Blues
TTITLE0=Layla
TTITLE1=Further On Up The Road
TTITLE2=I Shot The Sheriff
TTITLE3=Badge
TTITLE4=Driftin' Blues
TTITLE5=Eyesight To The Blind - Why Does Love Got To Be So Sad?
EXTD=
EXTT0=
EXTT1=
EXTT2=
EXTT3=
EXTT4=
EXTT5=
PLAYORDER=
